<?xml version="1.0" standalone="no"?>
<!DOCTYPE svg PUBLIC "-//W3C//DTD SVG 20010904//EN"
 "http://www.w3.org/TR/2001/REC-SVG-20010904/DTD/svg10.dtd">
<svg version="1.0" xmlns="http://www.w3.org/2000/svg"
 width="626.000000pt" height="626.000000pt" viewBox="0 0 626.000000 626.000000"
 preserveAspectRatio="xMidYMid meet">

<g transform="translate(0.000000,626.000000) scale(0.100000,-0.100000)"
fill="white" stroke="none">
<path d="M1195 5326 c-111 -35 -190 -104 -239 -206 l-31 -65 -3 -324 c-3 -331
-1 -348 34 -334 10 4 13 76 16 321 l3 317 26 56 c34 72 96 134 168 168 l56 26
315 3 c315 3 336 6 323 39 -7 18 -609 18 -668 -1z"/>
<path d="M4397 5327 c-13 -33 7 -36 323 -39 l315 -3 56 -26 c72 -34 134 -96
168 -168 l26 -56 3 -317 c3 -245 6 -317 16 -321 35 -14 37 3 34 334 l-3 324
-31 65 c-17 36 -51 85 -75 109 -24 24 -73 58 -109 75 l-65 31 -326 3 c-272 2
-327 1 -332 -11z"/>
<path d="M1390 4999 c-48 -15 -85 -43 -112 -87 -23 -37 -23 -39 -23 -362 0
-179 3 -337 7 -352 12 -40 57 -89 103 -109 36 -17 71 -19 353 -19 260 0 319 3
350 15 49 21 81 52 103 100 17 36 19 70 19 353 0 335 -3 357 -53 410 -52 56
-57 57 -397 59 -192 1 -329 -2 -350 -8z m575 -212 c42 -42 48 -80 44 -284 -4
-172 -10 -194 -66 -230 -23 -15 -54 -18 -202 -20 -197 -3 -238 4 -275 48 l-26
31 0 201 c0 184 2 205 20 235 11 18 30 37 43 42 12 5 114 9 226 9 l203 1 33
-33z"/>
<path d="M1625 4635 c-22 -21 -25 -33 -25 -95 0 -62 3 -74 25 -95 21 -22 33
-25 93 -25 55 0 75 4 96 21 24 19 26 26 26 95 0 66 -3 78 -25 99 -21 22 -33
25 -95 25 -62 0 -74 -3 -95 -25z"/>
<path d="M2623 4996 c-36 -17 -53 -43 -53 -84 0 -33 34 -82 56 -82 8 0 14 -4
14 -10 0 -5 -7 -10 -15 -10 -8 0 -24 -13 -35 -28 l-21 -29 -35 35 c-30 30 -39
34 -71 29 -69 -12 -101 -74 -69 -136 29 -55 116 -57 152 -4 l21 32 11 -25 c7
-13 23 -29 36 -35 l25 -12 -35 -32 c-52 -49 -46 -105 13 -146 l23 -16 -24 -12
c-55 -30 -61 -100 -11 -147 33 -31 34 -33 14 -39 -11 -4 -29 -21 -40 -38 -10
-18 -19 -26 -19 -19 0 28 -48 62 -87 62 -42 -1 -63 -13 -82 -49 -22 -41 8
-121 46 -121 20 0 15 -18 -7 -25 -21 -7 -50 -53 -50 -80 0 -27 29 -73 50 -80
26 -8 25 -18 -2 -30 -13 -6 -27 -20 -33 -32 -12 -28 -22 -29 -30 -3 -18 57
-123 63 -153 9 -18 -31 -32 -38 -32 -15 0 21 -48 56 -76 56 -34 0 -70 -19 -84
-45 l-13 -24 -32 35 c-44 46 -86 47 -128 2 l-30 -33 -33 33 c-45 45 -85 44
-130 -3 -30 -32 -33 -33 -39 -15 -8 24 -54 50 -88 50 -28 0 -77 -35 -77 -56 0
-23 -14 -16 -32 15 -34 61 -135 47 -157 -22 -21 -63 18 -117 84 -117 43 0 85
30 85 60 0 8 14 -2 31 -23 25 -31 37 -37 68 -37 41 0 79 22 90 53 8 20 9 20
24 -10 9 -17 26 -34 37 -38 18 -6 17 -9 -15 -39 -47 -45 -48 -85 -2 -131 l33
-33 -22 -12 c-12 -7 -27 -24 -34 -39 -12 -25 -12 -26 -20 -5 -12 32 -50 54
-91 54 -52 0 -93 -48 -85 -99 6 -42 46 -81 82 -81 35 0 81 26 89 50 6 18 9 17
39 -15 45 -47 86 -48 129 -2 l32 32 38 -37 c21 -21 33 -38 27 -38 -24 0 -60
-49 -60 -83 0 -37 32 -87 56 -87 8 0 14 -4 14 -10 0 -5 -6 -10 -14 -10 -22 0
-56 -49 -56 -82 0 -42 17 -68 56 -84 87 -37 162 65 103 140 -11 14 -27 26 -35
26 -8 0 -14 5 -14 10 0 6 7 10 15 10 8 0 24 13 35 28 l21 29 34 -34 c19 -19
43 -33 57 -33 31 0 88 36 88 55 0 22 18 18 25 -5 7 -21 53 -50 80 -50 27 0 73
29 80 50 8 26 18 25 30 -2 6 -13 20 -27 33 -33 29 -13 28 -17 -7 -37 -21 -11
-32 -27 -36 -51 -19 -100 104 -153 161 -69 l21 31 11 -25 c7 -13 23 -29 36
-35 l25 -12 -35 -32 c-26 -25 -34 -40 -34 -66 0 -35 22 -69 53 -86 16 -8 16
-10 -7 -22 -13 -7 -29 -25 -36 -40 l-12 -26 -14 27 c-30 57 -98 65 -145 19
-39 -40 -39 -82 0 -122 38 -38 91 -40 126 -4 14 13 25 29 25 35 0 5 17 -7 38
-27 l38 -38 -23 -13 c-55 -30 -59 -100 -8 -148 33 -31 34 -33 14 -39 -11 -4
-29 -21 -40 -38 -11 -18 -19 -25 -19 -16 0 18 -36 53 -64 63 -10 4 -34 2 -53
-5 -69 -22 -83 -123 -22 -157 31 -18 38 -32 15 -32 -21 0 -56 -49 -56 -77 0
-34 26 -80 50 -88 18 -6 17 -9 -15 -39 -43 -41 -46 -81 -9 -125 41 -49 118
-41 148 16 l13 27 13 -25 c20 -36 41 -48 83 -49 39 0 87 34 87 62 0 7 9 -1 19
-19 11 -17 30 -34 42 -38 l23 -8 -27 -13 c-33 -18 -47 -43 -47 -86 1 -81 93
-117 151 -59 40 41 39 83 -3 124 l-33 32 38 38 c22 23 37 32 37 23 0 -24 50
-56 87 -56 25 0 43 8 65 30 26 27 30 36 25 68 -12 76 -101 109 -152 57 -14
-13 -25 -29 -25 -35 0 -6 -15 5 -34 24 -22 24 -42 36 -60 36 -37 0 -83 -26
-91 -50 -6 -18 -9 -17 -39 15 -46 48 -86 48 -132 0 -30 -32 -33 -33 -39 -15
-4 11 -21 28 -38 37 -30 15 -30 16 -10 24 31 11 53 49 53 90 0 31 -6 43 -37
68 -23 19 -31 31 -22 31 19 0 59 41 59 61 0 8 9 -1 20 -19 50 -82 170 -52 170
43 0 35 -33 85 -56 85 -8 0 -14 5 -14 10 0 6 7 10 15 10 8 0 24 13 35 28 l21
29 34 -34 c22 -22 42 -33 63 -33 33 0 82 33 82 56 0 21 18 17 25 -6 4 -11 21
-28 38 -37 29 -14 30 -17 12 -23 -64 -24 -78 -106 -26 -152 17 -15 40 -28 52
-28 31 0 77 27 84 50 8 27 19 25 33 -4 6 -13 20 -27 31 -31 24 -7 28 -25 6
-25 -19 0 -55 -57 -55 -87 0 -12 12 -35 26 -52 21 -26 33 -31 68 -31 43 0 77
23 88 60 3 10 10 6 21 -16 18 -36 34 -44 83 -44 36 0 84 35 84 62 1 7 7 1 16
-14 18 -35 43 -48 89 -48 37 0 85 35 85 62 0 7 9 -2 20 -20 11 -18 30 -36 42
-41 22 -8 22 -9 -9 -24 -34 -18 -43 -34 -43 -78 0 -40 15 -66 47 -83 l27 -13
-23 -8 c-12 -4 -31 -20 -41 -37 l-18 -30 -16 30 c-17 34 -33 42 -82 42 -36 0
-84 -35 -84 -62 -1 -7 -7 -1 -16 14 -18 34 -43 48 -88 48 -28 0 -40 -7 -65
-37 -21 -25 -31 -32 -31 -21 0 25 -49 58 -86 58 -52 0 -89 -38 -89 -91 0 -35
6 -46 31 -67 l30 -24 -33 -33 c-18 -18 -33 -43 -33 -54 0 -32 27 -79 50 -86
26 -8 26 -22 0 -30 -21 -7 -50 -53 -50 -80 0 -56 70 -106 121 -86 26 9 53 37
62 61 3 11 8 7 16 -13 14 -36 72 -62 109 -49 15 5 36 22 48 39 l20 30 17 -28
c44 -78 167 -46 167 44 0 97 -119 128 -170 45 -11 -18 -20 -26 -20 -17 0 19
-41 59 -60 59 -8 0 2 14 23 31 30 25 37 37 37 65 0 45 -14 70 -47 88 l-27 14
31 16 c18 9 34 25 38 36 6 18 9 17 39 -15 46 -48 86 -48 132 0 30 32 33 33 39
15 4 -11 20 -27 38 -36 l31 -16 -27 -14 c-33 -18 -47 -43 -47 -87 0 -50 49
-91 98 -83 37 6 72 31 72 53 0 21 16 15 28 -11 6 -13 20 -27 31 -31 27 -8 27
-22 0 -30 -26 -8 -52 -69 -43 -98 9 -31 42 -64 70 -71 32 -8 90 17 99 43 8 27
22 27 30 0 8 -26 69 -52 98 -43 87 26 91 149 7 176 -11 4 -8 9 11 18 15 7 32
23 39 35 l13 24 32 -35 c44 -46 85 -46 129 -2 l33 33 31 -34 c28 -30 36 -33
69 -28 26 4 47 16 65 38 25 30 26 30 33 10 3 -12 21 -29 38 -38 29 -14 30 -17
12 -23 -78 -29 -75 -141 4 -171 51 -20 121 30 121 86 0 27 -29 73 -50 80 -26
8 -25 18 3 30 12 6 26 20 32 32 12 28 22 29 30 3 7 -21 53 -50 80 -50 56 0
106 70 86 121 -9 26 -37 53 -61 62 -11 3 -7 8 13 16 15 6 34 26 43 45 21 43 9
83 -32 111 l-30 20 30 20 c16 11 34 32 38 47 13 37 -13 95 -49 109 -20 8 -24
13 -13 16 24 9 52 36 61 62 20 51 -30 121 -86 121 -27 0 -73 -29 -80 -50 -8
-26 -18 -25 -30 3 -6 12 -20 26 -32 32 -28 12 -29 22 -3 30 21 7 50 53 50 80
0 27 -29 73 -50 80 -22 7 -27 25 -7 25 22 0 47 35 54 73 5 32 1 41 -29 71
l-35 35 29 21 c15 11 28 27 28 35 0 8 5 15 10 15 6 0 10 -6 10 -14 0 -24 50
-56 87 -56 90 0 122 123 44 167 l-28 17 30 20 c17 12 34 33 39 48 13 37 -13
95 -49 109 -26 10 -27 12 -8 19 25 10 51 38 59 67 9 29 -17 90 -43 98 -27 8
-27 22 0 30 26 9 51 67 43 99 -21 84 -144 91 -174 11 -6 -18 -9 -17 -23 12 -9
17 -26 34 -37 38 -22 7 -27 25 -7 25 22 0 47 35 54 73 5 32 1 41 -29 71 l-35
35 29 21 c15 11 28 27 28 35 0 8 5 15 10 15 6 0 10 -6 10 -14 0 -23 50 -56 86
-56 82 0 122 103 61 156 -18 15 -41 24 -61 24 -36 0 -86 -33 -86 -56 0 -8 -4
-14 -10 -14 -5 0 -10 7 -10 15 0 8 -13 24 -28 35 l-29 21 35 35 c31 31 34 39
29 72 -7 43 -46 82 -83 82 -35 0 -81 -26 -89 -50 -6 -18 -9 -17 -39 15 -41 43
-81 46 -125 9 -50 -42 -41 -118 17 -148 l27 -14 -26 -12 c-15 -7 -33 -23 -40
-36 l-12 -24 -16 23 c-41 59 -97 65 -146 13 l-32 -35 -12 25 c-6 13 -22 29
-35 36 l-25 11 31 21 c82 55 31 181 -65 162 -35 -7 -67 -32 -67 -53 0 -22 -14
-15 -32 16 -30 54 -135 48 -153 -9 -8 -26 -18 -25 -30 3 -6 12 -20 26 -32 32
-28 12 -29 22 -3 30 11 4 27 20 36 37 49 94 -65 179 -143 106 -13 -12 -23 -29
-23 -37 0 -9 -9 -1 -21 18 -11 18 -29 35 -40 38 -22 6 -26 23 -5 23 22 0 56
49 56 82 0 37 -14 64 -43 80 l-23 13 38 38 c21 20 38 32 38 27 0 -6 12 -22 26
-35 38 -35 87 -34 125 4 41 41 39 84 -3 124 l-33 30 33 33 c45 45 44 85 -3
130 -32 30 -33 33 -15 39 24 8 50 54 50 89 0 37 -39 76 -82 83 -33 5 -41 2
-72 -29 l-35 -35 -21 29 c-11 15 -27 28 -35 28 -8 0 -15 5 -15 10 0 6 6 10 14
10 23 0 56 50 56 84 0 42 -23 72 -64 86 -43 14 -81 0 -103 -39 l-17 -28 -20
30 c-12 17 -33 34 -48 39 -37 13 -95 -13 -109 -49 -10 -26 -12 -27 -19 -8 -10
25 -38 51 -67 59 -29 9 -90 -17 -98 -43 -3 -12 -10 -21 -15 -21 -5 0 -12 9
-15 21 -9 26 -67 51 -99 43 -84 -21 -92 -144 -11 -174 18 -6 17 -9 -12 -23
-17 -9 -34 -26 -38 -37 -7 -22 -25 -27 -25 -7 0 22 -35 47 -73 54 -32 5 -41 1
-71 -29 l-35 -35 -21 29 c-11 15 -27 28 -35 28 -8 0 -15 5 -15 10 0 6 6 10 14
10 23 0 56 50 56 86 0 39 -33 81 -70 88 -14 3 -39 -1 -57 -8z m938 -163 c22
-6 26 -23 4 -23 -8 0 -24 -13 -35 -28 l-21 -28 -38 35 c-20 20 -33 38 -27 40
21 7 56 45 56 60 0 9 9 1 21 -18 11 -18 29 -35 40 -38z m-416 37 c9 -29 60
-53 95 -45 16 4 41 20 55 37 14 17 27 29 28 27 1 -2 7 -13 13 -24 6 -11 20
-24 32 -30 25 -11 29 -25 8 -25 -21 0 -56 -49 -56 -77 0 -34 26 -80 49 -88 18
-5 17 -9 -17 -44 l-37 -37 -13 23 c-16 29 -43 43 -80 43 -33 0 -82 -34 -82
-56 0 -8 -4 -14 -10 -14 -5 0 -10 7 -10 15 0 8 -13 24 -28 35 l-29 21 34 34
c18 18 33 43 33 54 0 32 -27 79 -50 86 -26 8 -26 22 1 30 11 4 25 18 31 31 14
29 25 31 33 4z m-337 -224 l27 -14 -26 -12 c-15 -7 -32 -22 -39 -35 l-12 -23
-37 37 -37 36 27 17 c15 9 30 27 34 39 l8 23 13 -27 c8 -15 27 -33 42 -41z
m168 13 c11 -9 26 -19 34 -22 11 -3 7 -8 -12 -15 -15 -6 -33 -22 -40 -35 l-13
-23 -37 37 c-34 35 -35 39 -17 44 10 4 27 21 36 38 14 29 17 30 23 12 4 -11
16 -27 26 -36z m577 -11 l23 -13 -37 -36 -37 -37 -12 23 c-7 13 -24 28 -38 34
l-25 12 30 19 c17 10 34 29 38 41 l8 23 13 -27 c8 -15 25 -32 37 -39z m199 -7
c22 -8 22 -9 -9 -24 -17 -9 -34 -26 -38 -36 -5 -18 -9 -17 -43 17 l-38 37 27
17 c15 9 30 26 34 38 7 21 8 21 26 -9 11 -18 29 -35 41 -40z m-952 -181 c10
-5 34 -10 54 -10 28 0 40 7 65 37 17 21 31 32 31 25 0 -26 48 -62 83 -62 37 0
87 32 87 56 0 8 5 14 10 14 6 0 10 -7 10 -15 0 -8 13 -24 30 -37 l30 -22 -32
-27 c-27 -22 -33 -33 -33 -69 0 -35 6 -47 31 -69 l31 -26 -28 -23 c-16 -13
-29 -31 -29 -40 0 -11 -11 -4 -31 21 -26 32 -36 37 -73 37 -32 0 -48 -6 -65
-24 -40 -42 -29 -116 22 -143 29 -14 30 -17 12 -23 -76 -29 -76 -141 0 -170
18 -6 17 -9 -12 -23 -17 -9 -34 -26 -38 -37 -7 -23 -25 -27 -25 -6 0 23 -49
56 -82 56 -21 0 -40 -10 -62 -32 l-32 -33 -37 38 c-22 21 -31 37 -23 37 23 0
56 50 56 85 0 35 -33 85 -56 85 -8 0 -14 5 -14 10 0 6 6 10 14 10 22 0 56 49
56 82 0 39 -15 65 -47 82 l-27 13 25 13 c36 20 48 41 49 83 0 39 -34 87 -62
87 -7 0 1 9 19 19 17 11 34 30 38 42 l8 23 13 -27 c8 -15 23 -31 34 -37z m611
-10 c41 0 89 34 89 62 0 7 9 -1 19 -19 11 -17 30 -34 42 -38 l23 -8 -27 -13
c-15 -8 -31 -23 -37 -34 -23 -44 -4 -110 38 -129 l25 -12 -30 -19 c-17 -10
-34 -29 -38 -41 l-8 -23 -13 27 c-17 32 -43 47 -83 47 -44 0 -60 -9 -78 -43
-14 -29 -17 -30 -23 -12 -8 22 -37 50 -60 58 -11 3 -7 8 13 16 35 14 59 67 48
107 -4 16 -21 38 -38 50 l-30 20 29 17 c17 10 32 26 35 38 5 19 8 17 35 -15
25 -30 36 -36 69 -36z m336 6 l27 -13 -23 -8 c-12 -4 -31 -21 -41 -38 l-19
-30 -11 24 c-6 14 -23 32 -37 41 -26 15 -26 16 -4 23 11 3 28 20 37 38 l16 31
14 -27 c8 -15 26 -33 41 -41z m-1121 -376 c21 0 17 -17 -5 -23 -11 -3 -29 -20
-40 -38 -12 -19 -21 -28 -21 -20 0 19 -40 61 -57 61 -8 0 3 17 24 38 l38 37
23 -27 c13 -16 30 -28 38 -28z m526 30 c9 -17 24 -30 33 -30 23 0 18 -15 -9
-28 -13 -6 -27 -20 -31 -31 -3 -12 -10 -21 -15 -21 -5 0 -12 9 -15 21 -4 11
-18 25 -31 31 -27 13 -32 28 -9 28 9 0 24 13 33 30 9 16 19 30 22 30 3 0 13
-14 22 -30z m183 8 c6 -13 20 -27 33 -33 29 -13 28 -17 -8 -37 -17 -9 -30 -24
-30 -33 0 -22 -9 -19 -32 11 -12 14 -30 29 -42 33 -19 8 -19 9 11 24 17 9 34
26 38 37 8 26 18 25 30 -2z m231 -38 c21 0 17 -17 -5 -23 -11 -3 -29 -20 -40
-38 -12 -19 -21 -28 -21 -20 0 19 -40 61 -57 61 -8 0 3 17 24 38 l38 37 23
-27 c13 -16 30 -28 38 -28z m-948 -188 c16 -6 13 -12 -19 -43 l-37 -37 -12 23
c-7 13 -24 28 -39 35 -19 9 -22 14 -11 18 24 8 60 44 60 61 0 9 9 1 20 -17 11
-18 28 -36 38 -40z m943 1 c22 -6 26 -23 4 -23 -8 0 -24 -13 -35 -28 l-21 -28
-38 35 c-33 32 -35 37 -19 43 10 4 26 21 36 37 l16 29 19 -30 c10 -17 27 -32
38 -35z m165 16 c11 -9 26 -19 34 -21 11 -4 8 -9 -11 -18 -15 -7 -33 -23 -40
-37 l-13 -24 -24 31 c-13 16 -30 30 -38 30 -21 0 -17 17 6 23 11 3 28 19 37
36 15 25 19 27 24 13 4 -9 15 -24 25 -33z m-581 20 c4 -11 18 -25 31 -31 27
-13 32 -28 9 -28 -9 0 -24 -13 -33 -30 -9 -16 -19 -30 -22 -30 -3 0 -13 14
-22 30 -9 17 -24 30 -33 30 -22 0 -18 18 6 25 11 4 25 18 31 31 14 29 25 31
33 3z m185 6 c0 -9 13 -24 30 -33 36 -20 37 -24 8 -37 -13 -6 -27 -20 -33 -32
-12 -28 -22 -29 -30 -3 -4 11 -21 28 -38 37 -30 15 -30 16 -10 24 11 4 29 19
40 33 21 29 33 33 33 11z m-1462 -229 l27 -14 -26 -12 c-14 -6 -32 -23 -40
-36 l-15 -25 -13 24 c-7 14 -25 30 -39 36 l-25 12 30 19 c17 10 34 29 38 41
l8 23 13 -27 c8 -15 27 -33 42 -41z m189 0 l27 -13 -23 -8 c-12 -4 -30 -19
-39 -34 l-17 -27 -37 38 c-34 34 -35 38 -17 43 10 4 26 20 35 38 l16 31 14
-27 c8 -15 26 -33 41 -41z m166 17 c41 -45 130 -23 149 37 4 11 9 8 18 -11 7
-15 23 -32 35 -39 l24 -13 -35 -32 c-46 -44 -47 -86 -1 -129 l32 -31 -37 -38
c-23 -23 -38 -32 -38 -23 0 23 -50 56 -85 56 -41 0 -82 -32 -90 -69 -8 -39 18
-89 53 -102 26 -11 26 -11 6 -19 -12 -5 -31 -21 -44 -37 -16 -20 -24 -24 -28
-14 -19 53 -105 70 -149 29 -13 -12 -23 -29 -23 -37 0 -9 -8 -2 -19 16 -11 17
-29 34 -40 38 -20 6 -19 8 14 39 51 48 45 113 -13 148 l-26 16 26 12 c14 7 31
24 38 39 l12 26 14 -27 c30 -57 98 -65 145 -19 41 41 39 84 -3 124 l-33 30 35
37 c19 20 37 32 39 26 2 -6 13 -21 24 -33z m387 -13 c35 -19 89 -12 115 15 14
13 25 30 25 37 1 7 7 1 16 -14 18 -33 43 -48 83 -48 44 0 60 9 78 44 11 22 18
26 21 16 7 -24 44 -60 61 -60 10 -1 5 -7 -11 -16 -82 -44 -55 -174 36 -174 53
0 91 37 91 90 0 35 -6 47 -31 69 l-31 26 28 23 c16 13 29 30 29 38 0 8 5 14
10 14 6 0 10 -5 10 -12 0 -6 10 -22 22 -35 42 -45 131 -23 150 37 3 10 10 6
21 -16 18 -35 34 -44 78 -44 40 0 66 15 83 47 l13 27 8 -23 c4 -12 20 -31 37
-41 l30 -18 -23 -13 c-35 -18 -48 -40 -48 -79 0 -38 11 -57 47 -82 l24 -16
-22 -7 c-12 -4 -30 -21 -41 -38 -10 -18 -19 -26 -19 -19 0 28 -48 62 -88 62
-38 0 -56 -11 -87 -55 -12 -17 -14 -17 -15 -3 0 27 -49 58 -90 58 -50 0 -85
-37 -85 -90 0 -40 26 -80 52 -80 19 0 17 -4 -24 -45 -21 -21 -39 -32 -41 -26
-17 52 -111 70 -149 29 -11 -13 -23 -30 -26 -38 -3 -11 -8 -7 -15 12 -23 56
-109 69 -149 23 -30 -34 -31 -91 -1 -122 12 -13 27 -23 35 -23 7 0 13 -4 13
-10 0 -5 -6 -10 -14 -10 -8 0 -25 -13 -38 -29 l-23 -28 -26 31 c-22 25 -34 31
-69 31 -35 0 -47 -6 -69 -31 l-26 -31 -23 28 c-13 16 -30 29 -38 29 -8 0 -14
5 -14 10 0 6 5 10 12 10 6 0 22 10 35 22 45 42 23 131 -37 150 -10 3 -5 10 17
21 17 9 34 26 38 37 6 18 9 17 39 -15 43 -46 85 -47 127 -6 58 58 24 151 -55
151 -49 0 -65 -8 -82 -42 l-16 -30 -18 30 c-10 17 -29 33 -41 37 l-23 8 27 13
c34 18 47 43 47 89 0 37 -34 84 -62 86 -7 0 -3 4 10 9 12 5 30 23 40 39 l17
30 13 -24 c7 -14 21 -29 32 -35z m1130 0 c25 -14 81 -12 101 3 9 7 22 23 29
37 10 18 15 21 18 10 18 -59 103 -81 149 -38 13 12 23 28 23 35 0 8 17 -3 38
-24 l37 -38 -28 -25 c-17 -15 -30 -39 -34 -63 -5 -33 -2 -41 28 -70 l34 -32
-37 -38 c-23 -23 -38 -32 -38 -23 0 23 -50 56 -85 56 -41 0 -82 -32 -90 -69
-8 -39 18 -89 53 -103 19 -7 23 -12 12 -15 -75 -26 -88 -133 -20 -168 36 -19
54 -19 89 0 59 30 63 105 9 150 -17 14 -29 27 -27 28 2 1 13 7 24 13 11 6 24
20 30 32 11 25 25 29 25 8 0 -21 49 -56 77 -56 34 0 80 26 88 49 5 18 9 17 44
-17 l37 -37 -23 -13 c-29 -16 -43 -43 -43 -80 0 -33 34 -82 56 -82 8 0 14 -4
14 -10 0 -5 -6 -10 -14 -10 -22 0 -56 -49 -56 -82 0 -37 14 -64 43 -80 l23
-13 -37 -37 c-35 -34 -39 -35 -44 -17 -8 23 -54 49 -88 49 -28 0 -77 -35 -77
-56 0 -8 -4 -14 -10 -14 -5 0 -10 6 -10 14 0 24 -50 56 -87 56 -33 0 -83 -36
-83 -60 0 -5 -4 -10 -10 -10 -5 0 -10 6 -10 14 0 21 -49 56 -77 56 -53 0 -92
-37 -93 -88 0 -43 14 -68 47 -86 l27 -13 -23 -8 c-12 -4 -31 -20 -41 -37 l-18
-30 -13 23 c-18 35 -40 48 -79 48 -38 0 -57 -11 -82 -47 l-16 -24 -7 22 c-4
12 -21 30 -38 41 -18 10 -26 19 -19 19 26 0 62 48 62 84 0 49 -8 65 -43 83
-31 15 -31 16 -9 24 12 5 30 22 40 39 l19 30 11 -26 c7 -14 28 -32 47 -40 91
-38 165 68 101 143 -19 22 -32 28 -67 28 -35 0 -46 -6 -67 -31 l-25 -31 -27
31 c-23 24 -36 31 -68 31 -42 0 -82 -26 -82 -52 0 -21 -15 -15 -30 12 -7 13
-21 27 -32 31 -24 7 -23 21 3 29 26 8 52 69 43 98 -8 29 -34 57 -59 67 -19 7
-18 9 8 19 15 6 32 22 38 35 l12 25 32 -35 c46 -48 116 -43 145 11 l13 24 32
-35 c42 -45 84 -46 126 -5 38 38 40 91 4 126 -13 14 -30 25 -37 25 -7 0 -1 8
12 17 63 43 68 98 16 148 l-35 32 25 12 c13 6 30 22 36 36 l12 26 13 -25 c7
-14 22 -30 33 -36z m941 1 c30 -18 30 -19 9 -26 -12 -4 -29 -19 -38 -34 l-17
-27 -37 38 c-34 34 -35 38 -17 43 10 4 27 21 36 38 15 31 16 31 24 9 5 -12 22
-30 40 -41z m-2811 -196 c21 -7 21 -8 -8 -25 -17 -10 -33 -28 -37 -40 -7 -21
-8 -21 -25 8 -10 17 -28 33 -40 37 -21 7 -21 8 8 25 17 10 33 28 37 40 7 21 8
21 25 -8 10 -17 28 -33 40 -37z m2433 -24 c-12 -8 -27 -26 -33 -40 l-11 -24
-19 30 c-10 17 -28 34 -40 38 -21 7 -21 8 8 25 17 10 33 28 37 39 6 20 9 18
43 -17 l37 -37 -22 -14z m187 29 c44 -23 110 -4 129 38 l12 25 19 -30 c10 -17
29 -34 41 -38 l23 -8 -27 -13 c-32 -17 -47 -43 -47 -83 0 -44 9 -60 44 -78 22
-11 26 -18 16 -21 -22 -7 -51 -34 -60 -57 -6 -17 -8 -16 -21 10 -29 60 -124
63 -157 4 l-16 -27 -19 30 c-10 17 -27 33 -38 35 -18 5 -17 8 15 35 30 25 36
36 36 69 0 41 -34 89 -62 89 -7 0 1 9 19 19 17 11 34 30 38 42 l8 23 13 -27
c8 -15 23 -31 34 -37z m-2095 -152 c6 -13 20 -27 33 -33 27 -12 28 -22 2 -30
-11 -4 -28 -21 -37 -38 -15 -30 -16 -30 -24 -11 -4 12 -19 30 -33 42 -30 23
-33 32 -11 32 9 0 24 13 33 30 20 36 24 37 37 8z m565 -193 c7 -14 16 -25 19
-25 3 0 12 -4 19 -9 10 -6 4 -17 -24 -45 -20 -20 -37 -35 -38 -34 -10 25 -27
45 -44 53 -28 12 -28 18 1 30 12 6 26 20 32 33 12 28 19 28 35 -3z m185 4 c4
-11 18 -25 31 -31 13 -6 24 -14 24 -18 0 -4 -11 -12 -24 -18 -13 -6 -27 -20
-31 -31 -8 -27 -22 -27 -30 0 -4 11 -18 25 -31 31 -29 14 -31 25 -3 33 11 4
25 18 31 31 14 29 25 31 33 3z m1361 -39 c8 0 14 -4 14 -10 0 -5 -7 -10 -15
-10 -8 0 -24 -14 -37 -30 l-22 -30 -24 30 c-13 16 -30 30 -38 30 -8 0 -14 5
-14 10 0 6 7 10 15 10 8 0 24 14 37 30 l22 30 24 -30 c13 -16 30 -30 38 -30z
m159 -43 l-34 -34 -21 29 c-11 15 -27 28 -35 28 -8 0 -15 5 -15 10 0 6 7 10
15 10 8 0 24 13 35 28 l21 29 34 -34 33 -33 -33 -33z m170 82 c4 -11 18 -25
31 -31 13 -6 24 -14 24 -18 0 -4 -11 -12 -24 -18 -13 -6 -27 -20 -31 -31 -8
-27 -22 -27 -30 0 -4 11 -18 25 -31 31 -29 14 -31 25 -3 33 11 4 25 18 31 31
14 29 25 31 33 3z m-2027 -227 c16 -6 14 -11 -18 -42 l-37 -35 -35 36 -36 37
24 11 c13 6 29 22 36 36 l11 25 19 -30 c10 -17 26 -34 36 -38z m168 17 c11 -9
30 -19 43 -22 32 -8 88 16 96 42 8 26 22 27 29 3 4 -11 18 -25 31 -32 27 -15
33 -30 12 -30 -26 0 -52 -40 -52 -80 0 -53 35 -90 85 -90 40 0 78 22 90 54 8
21 8 20 20 -5 7 -15 23 -32 35 -39 l24 -13 -35 -32 c-25 -24 -34 -41 -34 -65
0 -24 9 -41 34 -65 l35 -32 -24 -13 c-12 -7 -28 -24 -35 -39 -12 -25 -12 -26
-20 -5 -21 54 -105 72 -147 32 -13 -12 -23 -28 -23 -35 0 -8 -17 3 -37 24
l-38 38 30 26 c24 22 30 34 30 69 0 34 -6 47 -28 66 -45 39 -112 29 -139 -19
l-13 -23 -36 37 -37 37 23 12 c54 29 59 99 11 145 l-35 32 25 12 c13 6 29 23
35 38 10 26 12 27 19 8 4 -11 16 -27 26 -36z m354 25 c0 -8 13 -22 30 -32 l30
-19 -30 -22 c-17 -12 -30 -28 -30 -36 0 -23 -16 -18 -28 10 -7 14 -24 30 -39
36 -20 8 -24 13 -13 16 23 8 60 45 60 60 0 8 5 11 10 8 6 -3 10 -13 10 -21z
m1184 -45 c40 -11 93 13 107 48 10 26 12 27 19 8 10 -25 38 -51 67 -59 22 -7
93 17 93 31 0 4 4 14 9 21 6 10 17 4 44 -23 42 -42 43 -45 22 -45 -25 0 -57
-60 -50 -95 6 -34 41 -75 64 -75 9 0 1 -9 -18 -21 -18 -11 -35 -29 -38 -40 -6
-22 -23 -26 -23 -5 0 24 -50 56 -87 56 -49 0 -83 -37 -83 -90 0 -30 6 -47 25
-65 13 -14 30 -25 37 -25 7 0 -2 -9 -20 -20 -18 -11 -36 -30 -41 -42 -8 -22
-9 -22 -24 9 -18 35 -34 43 -83 43 -49 0 -84 -37 -84 -89 0 -33 6 -44 36 -69
32 -27 33 -30 15 -35 -11 -2 -28 -18 -38 -35 l-19 -30 -16 29 c-35 60 -121 58
-159 -5 -11 -17 -19 -24 -19 -15 0 17 -36 54 -60 61 -10 3 -5 10 17 22 53 27
61 99 16 148 -9 10 -23 18 -32 18 -9 0 -3 8 16 19 17 11 34 29 38 40 6 20 8
19 39 -14 26 -27 41 -35 68 -35 93 0 123 130 40 174 -15 9 -21 15 -14 16 29 0
62 48 62 89 0 33 -6 44 -36 69 -32 27 -34 30 -15 35 12 3 28 18 38 35 l17 29
20 -30 c12 -17 34 -34 50 -38z m-1707 -183 l27 -13 -23 -8 c-12 -4 -30 -20
-40 -36 l-18 -29 -12 24 c-7 13 -24 30 -37 37 l-24 12 29 18 c16 10 32 28 36
40 l8 23 13 -27 c8 -15 26 -33 41 -41z m1122 6 l29 -16 -30 -19 c-17 -10 -32
-26 -35 -37 -4 -16 -9 -14 -41 18 l-37 35 35 37 c31 33 36 34 42 18 4 -10 21
-26 37 -36z m151 44 c0 -8 13 -25 29 -39 l29 -24 -29 -22 c-16 -12 -29 -28
-29 -36 0 -22 -17 -18 -23 4 -3 11 -20 29 -38 40 -19 12 -28 21 -20 21 19 0
61 39 61 57 0 7 5 13 10 13 6 0 10 -6 10 -14z m195 -15 c8 -16 24 -32 34 -36
18 -5 17 -9 -17 -43 l-37 -38 -17 27 c-9 15 -26 30 -38 34 -21 7 -21 8 8 25
17 10 33 28 37 39 8 27 12 27 30 -8z m-1467 -222 l27 -11 -27 -14 c-15 -8 -34
-26 -42 -41 l-13 -27 -8 23 c-4 12 -21 31 -38 41 l-30 19 25 12 c14 6 32 22
39 36 l13 24 14 -26 c7 -14 25 -31 40 -36z m190 -3 c16 -9 21 -15 11 -16 -17
0 -54 -36 -61 -60 -3 -10 -10 -5 -21 17 -9 17 -26 34 -36 38 -18 5 -17 9 17
44 l37 37 13 -23 c7 -12 25 -29 40 -37z m561 4 l26 -12 -27 -14 c-15 -8 -34
-26 -42 -41 l-13 -27 -8 23 c-4 12 -20 31 -37 41 l-30 18 30 16 c17 9 34 26
37 37 7 22 8 22 23 -4 9 -14 27 -31 41 -37z m181 0 c39 -21 81 -12 116 25 31
33 33 34 39 14 4 -11 21 -29 38 -40 18 -11 25 -19 16 -19 -19 0 -54 -37 -63
-67 -9 -29 19 -94 44 -100 11 -3 20 -7 20 -8 0 -2 -16 -19 -37 -40 -27 -27
-38 -33 -44 -23 -5 7 -9 17 -9 21 0 14 -71 38 -93 31 -42 -12 -67 -45 -67 -88
0 -41 30 -86 57 -86 8 0 -3 -17 -24 -37 l-38 -38 -26 30 c-22 24 -34 30 -69
30 -36 0 -47 -6 -68 -31 l-24 -30 -33 33 c-22 22 -42 33 -63 33 -33 0 -82 -33
-82 -56 0 -22 -16 -16 -28 11 -6 14 -15 25 -19 25 -5 0 -14 4 -22 9 -11 7 -7
15 20 39 27 24 33 36 32 66 -1 39 -24 73 -58 86 -18 6 -17 9 12 23 17 9 34 26
38 37 7 23 25 27 25 6 0 -23 49 -56 82 -56 20 0 40 10 62 33 l33 32 30 -32
c40 -43 83 -45 124 -4 38 38 40 91 4 126 -13 14 -29 25 -35 25 -5 0 7 17 28
38 l37 38 13 -23 c7 -12 21 -27 32 -33z m340 46 c0 -8 12 -25 28 -38 l27 -23
-37 -38 c-23 -23 -38 -32 -38 -24 0 9 -13 26 -29 40 l-29 24 29 22 c16 12 29
28 29 36 0 8 5 15 10 15 6 0 10 -6 10 -14z m-928 -206 c9 -17 24 -30 33 -30
23 0 18 -15 -9 -28 -13 -6 -27 -20 -31 -31 -3 -12 -10 -21 -15 -21 -5 0 -12 9
-15 21 -4 11 -18 25 -31 31 -30 14 -30 21 -1 33 12 6 26 20 32 33 13 29 17 28
37 -8z m933 8 c6 -13 20 -27 33 -33 28 -12 28 -19 -2 -33 -13 -6 -27 -20 -31
-31 -3 -12 -10 -21 -15 -21 -5 0 -12 9 -15 21 -4 11 -18 25 -31 31 -27 13 -32
28 -9 28 9 0 24 13 33 30 20 36 24 37 37 8z m602 -37 c20 -10 24 -15 13 -19
-24 -8 -60 -44 -60 -61 0 -9 -8 -2 -19 16 -11 17 -29 34 -40 38 -24 7 -28 25
-6 25 8 0 24 14 37 30 l22 31 12 -24 c7 -13 25 -29 41 -36z m-186 -188 c22 -6
26 -23 4 -23 -8 0 -24 -14 -37 -30 l-22 -30 -24 30 c-13 16 -30 30 -38 30 -21
0 -17 17 6 23 11 3 28 19 37 35 l17 30 19 -30 c10 -17 27 -32 38 -35z m165 16
c11 -9 26 -19 34 -21 11 -4 8 -9 -11 -18 -15 -7 -33 -23 -40 -37 l-13 -24 -24
31 c-13 16 -30 30 -38 30 -21 0 -17 17 6 23 11 3 28 19 37 36 15 25 19 27 24
13 4 -9 15 -24 25 -33z m-771 20 c4 -11 18 -25 31 -31 13 -6 24 -14 24 -18 0
-4 -11 -12 -24 -18 -13 -6 -27 -20 -31 -31 -8 -27 -18 -26 -30 2 -6 12 -20 26
-32 32 -30 13 -29 17 7 37 17 9 30 24 30 33 0 22 18 18 25 -6z m193 -3 c6 -13
20 -27 31 -31 27 -8 26 -18 -1 -30 -13 -6 -27 -20 -33 -32 -12 -28 -22 -29
-30 -2 -4 11 -18 25 -31 31 -29 14 -31 25 -3 33 11 4 25 18 31 31 6 13 14 24
18 24 4 0 12 -11 18 -24z m228 -36 c8 0 14 -4 14 -10 0 -5 -6 -10 -14 -10 -8
0 -25 -14 -38 -30 l-24 -31 -13 24 c-7 14 -25 30 -40 37 -26 12 -26 12 -4 20
11 5 29 20 40 34 l18 25 23 -30 c13 -16 30 -29 38 -29z m-400 -171 c11 -9 26
-19 34 -22 11 -3 7 -8 -13 -16 -15 -6 -32 -22 -39 -36 -12 -27 -28 -33 -28
-11 0 8 -14 26 -31 39 -31 24 -31 25 -10 32 12 3 29 21 38 38 14 29 17 30 23
12 4 -11 16 -27 26 -36z m190 -1 c26 -27 95 -24 121 5 11 12 23 29 26 37 3 11
8 7 16 -13 6 -15 22 -32 35 -38 l25 -12 -35 -32 c-49 -46 -43 -116 13 -146
l24 -13 -25 -15 c-13 -8 -30 -26 -36 -40 l-12 -26 -14 27 c-30 57 -98 65 -145
19 -41 -41 -39 -84 4 -125 l32 -31 -37 -38 c-21 -21 -38 -33 -38 -26 0 7 -10
23 -22 36 -42 45 -131 23 -150 -37 -3 -10 -10 -5 -21 17 -9 17 -26 34 -37 38
-18 6 -17 9 15 39 47 45 48 86 3 130 l-33 31 38 38 c22 23 37 32 37 23 0 -23
50 -56 86 -56 51 0 89 38 89 90 0 35 -6 47 -31 69 l-31 26 28 23 c16 13 29 31
29 40 1 14 3 14 15 -3 8 -11 22 -28 31 -37z m392 -12 l27 -14 -26 -12 c-14 -6
-32 -23 -40 -36 l-15 -25 -13 24 c-7 14 -25 30 -39 36 l-25 12 30 19 c17 10
34 29 38 41 l8 23 13 -27 c8 -15 27 -33 42 -41z m170 11 c40 -37 118 -19 142
32 9 19 14 22 18 11 7 -24 44 -60 60 -60 8 0 0 -10 -19 -23 -60 -41 -61 -120
0 -155 l29 -16 -30 -19 c-17 -10 -32 -27 -35 -37 -5 -17 -9 -15 -38 15 -41 44
-93 48 -130 10 -44 -43 -30 -125 23 -147 19 -7 23 -12 12 -15 -23 -8 -51 -36
-60 -58 -7 -19 -9 -18 -18 7 -13 32 -40 48 -82 48 -41 0 -66 -14 -84 -47 l-13
-27 -8 23 c-4 12 -20 31 -37 41 l-30 18 23 13 c36 19 48 40 49 82 0 39 -34 87
-62 87 -7 0 1 9 19 19 17 11 34 30 38 42 l8 23 13 -27 c18 -33 43 -47 86 -47
37 1 59 14 76 47 21 39 14 74 -22 108 l-35 32 25 12 c13 6 29 23 35 38 10 26
12 27 19 8 4 -11 17 -28 28 -38z m-1303 -414 c-12 -6 -27 -24 -34 -40 -12 -26
-14 -27 -21 -8 -9 22 -37 50 -60 58 -11 3 -7 8 13 16 15 6 32 21 38 35 l11 24
37 -37 c36 -35 37 -36 16 -48z m938 -1 c-13 -7 -29 -25 -34 -40 -10 -25 -12
-26 -19 -7 -9 22 -37 50 -60 58 -11 3 -7 8 13 16 15 6 32 21 38 35 l11 24 37
-37 37 -36 -23 -13z m532 66 c6 -13 23 -29 40 -37 20 -10 25 -16 15 -19 -22
-7 -51 -34 -60 -57 -7 -19 -8 -18 -20 6 -7 15 -23 33 -37 40 l-24 13 31 24
c16 13 30 30 30 38 0 21 14 17 25 -8z m-1500 -190 c6 -13 20 -27 33 -33 28
-13 28 -19 -3 -33 -14 -7 -30 -24 -36 -39 -10 -26 -12 -27 -19 -8 -9 23 -38
50 -60 57 -10 3 -5 10 17 21 17 9 34 26 38 37 8 26 18 25 30 -2z m750 0 c6
-13 20 -27 33 -33 28 -12 28 -19 -2 -33 -13 -6 -27 -20 -31 -31 -3 -12 -10
-21 -15 -21 -5 0 -12 9 -15 21 -4 11 -18 25 -31 31 -29 14 -31 25 -3 33 11 4
25 18 31 31 14 30 21 30 33 2z"/>
<path d="M4197 4996 c-50 -18 -85 -51 -108 -101 -17 -36 -19 -70 -19 -355 0
-285 2 -319 19 -355 22 -48 54 -79 103 -100 31 -12 90 -15 350 -15 282 0 317
2 353 19 46 20 91 69 103 109 4 15 7 174 7 354 l0 326 -30 43 c-58 82 -67 84
-425 86 -249 2 -323 0 -353 -11z m594 -214 l29 -32 0 -209 c0 -199 -1 -210
-22 -236 -37 -48 -71 -55 -260 -55 -191 0 -221 7 -262 63 -19 26 -21 44 -23
205 -2 98 1 193 7 212 5 19 24 48 41 63 l31 28 215 -3 215 -3 29 -33z"/>
<path d="M4445 4635 c-22 -21 -25 -33 -25 -95 0 -62 3 -74 25 -95 21 -22 33
-25 95 -25 62 0 74 3 95 25 22 21 25 33 25 95 0 62 -3 74 -25 95 -21 22 -33
25 -95 25 -62 0 -74 -3 -95 -25z"/>
<path d="M1325 3312 c-27 -5 -55 -32 -66 -61 -20 -51 30 -121 86 -121 30 0 72
29 84 58 28 66 -33 138 -104 124z"/>
<path d="M1483 3110 c-22 -13 -34 -29 -38 -53 -8 -41 15 -92 45 -102 22 -7 27
-25 7 -25 -22 0 -47 -35 -54 -73 -5 -32 -1 -41 29 -71 l35 -35 -29 -21 c-15
-11 -28 -27 -28 -35 0 -8 -4 -15 -10 -15 -5 0 -10 6 -10 14 0 22 -49 56 -82
56 -42 0 -68 -17 -84 -55 -18 -44 -2 -90 40 -116 18 -11 24 -19 15 -19 -18 0
-53 -36 -63 -64 -4 -10 -2 -34 5 -53 22 -69 123 -83 157 -22 18 31 32 38 32
15 0 -21 49 -56 77 -56 31 0 79 25 87 45 14 38 6 91 -17 113 -13 12 -30 22
-38 22 -8 0 0 9 18 19 17 11 34 29 38 40 6 20 8 19 39 -14 26 -27 41 -35 67
-35 35 0 69 22 86 53 8 16 10 16 22 -7 7 -13 25 -29 40 -36 l26 -12 -27 -14
c-58 -30 -67 -106 -17 -148 41 -35 83 -34 120 3 38 38 39 87 4 125 -13 14 -29
26 -35 26 -5 0 7 17 28 38 l37 38 13 -23 c29 -52 98 -59 143 -14 39 40 39 82
0 122 -47 46 -115 38 -145 -18 l-13 -27 -13 25 c-19 35 -41 48 -81 49 -37 0
-89 -36 -89 -62 0 -7 -9 1 -19 19 -11 17 -30 34 -42 38 l-23 8 27 13 c57 30
65 107 16 148 -44 37 -84 34 -125 -9 -30 -32 -33 -33 -39 -15 -4 11 -21 28
-38 37 -22 11 -27 18 -17 21 37 11 60 45 60 88 0 35 -5 47 -31 68 -37 31 -63
33 -106 6z m167 -320 c0 -4 11 -12 24 -19 l24 -13 -37 -37 -36 -37 -17 27 c-9
15 -26 30 -38 34 -21 7 -21 8 8 25 17 10 33 29 37 41 7 22 8 22 21 4 8 -10 14
-22 14 -25z m-200 -165 c0 -8 13 -24 28 -35 l28 -21 -35 -38 c-20 -20 -38 -33
-40 -27 -7 21 -45 56 -60 56 -9 0 -1 9 18 21 18 11 35 29 38 40 6 22 23 26 23
4z"/>
<path d="M2237 2929 c-28 -16 -49 -67 -42 -100 19 -84 145 -92 176 -12 12 33
-5 88 -34 108 -24 17 -74 19 -100 4z"/>
<path d="M2222 2537 c-73 -78 12 -192 106 -143 33 17 57 70 46 102 -23 65
-108 88 -152 41z"/>
<path d="M1365 2171 c-46 -20 -91 -69 -103 -109 -4 -15 -7 -173 -7 -352 0
-325 0 -325 24 -363 13 -21 42 -50 64 -65 l40 -27 313 -3 c336 -4 371 0 425
45 66 56 69 73 69 423 0 285 -2 319 -19 355 -22 48 -54 79 -103 100 -31 12
-90 15 -350 15 -282 0 -317 -2 -353 -19z m582 -187 c56 -41 63 -71 63 -262 0
-189 -7 -223 -55 -260 -26 -21 -37 -22 -236 -22 l-209 0 -32 29 -33 29 -3 215
-3 214 26 32 c15 17 41 35 58 40 18 5 114 8 214 8 167 -2 184 -4 210 -23z"/>
<path d="M1625 1815 c-22 -21 -25 -33 -25 -95 0 -62 3 -74 25 -95 21 -22 33
-25 95 -25 62 0 74 3 95 25 22 21 25 33 25 95 0 62 -3 74 -25 95 -21 22 -33
25 -95 25 -62 0 -74 -3 -95 -25z"/>
<path d="M931 1861 c-9 -6 -11 -86 -9 -332 l3 -324 31 -65 c39 -83 101 -145
184 -184 l65 -31 324 -3 c331 -3 348 -1 334 34 -4 10 -76 13 -321 16 l-317 3
-56 26 c-72 34 -134 96 -168 168 l-26 56 -3 317 c-3 323 -6 341 -41 319z"/>
<path d="M5302 1861 c-7 -4 -12 -107 -14 -321 -3 -303 -4 -317 -26 -364 -37
-80 -85 -132 -160 -168 l-67 -33 -316 -3 c-246 -3 -318 -6 -322 -16 -14 -35 3
-37 334 -34 l324 3 65 31 c83 39 145 101 184 184 l31 65 3 326 c2 272 1 327
-11 332 -8 3 -19 2 -25 -2z"/>
<path d="M2422 1613 c-23 -9 -44 -64 -38 -96 7 -35 32 -67 53 -67 22 0 15 -14
-16 -32 -61 -34 -47 -135 22 -157 63 -21 117 18 117 84 0 42 -30 85 -59 85 -7
0 5 17 26 38 l38 37 31 -32 c41 -43 84 -45 125 -4 58 59 24 151 -56 151 -46 0
-71 -13 -89 -48 -9 -15 -15 -21 -16 -14 0 7 -11 24 -25 37 -23 24 -77 33 -113
18z"/>
</g>
</svg>
